<?xml version="1.0" standalone="no"?>
<!DOCTYPE svg PUBLIC "-//W3C//DTD SVG 1.1//EN" "http://www.w3.org/Graphics/SVG/1.1/DTD/svg11.dtd" >
<svg xmlns="http://www.w3.org/2000/svg" xmlns:xlink="http://www.w3.org/1999/xlink" version="1.1" viewBox="-10 0 266 256">
   <path fill="currentColor"
d="M143 18q16 -5 33 -9q8 -1 16 2q1 2 2 2q10 7 14 12q2 5 7 6h1q3 1 2 4q0 3 -3 4q-8 3 -9 17q-7 49 10 139q3 17 8 27q1 3 -2 5q-4 2 -6 0l-4 -4q-25 -20 -31 -31q-6 -8 2 -1q12 13 26 17q4 1 4 0q1 0 1 -4q-10 -46 -12 -76q-3 -29 -5 -103q-2 -12 -14 -14q-11 2 -18 5
q-11 4 -21 5q-5 0 -5 -1t4 -2zM90 23q3 -3 7 0q7 5 11 7q2 2 2 5q-1 2 -4 2q-5 1 -5 8q-4 15 -4 26q6 -4 22 -17q4 -4 7 -6q8 -6 2 2q-35 36 -47 41q-5 4 -10 -1q-3 -2 0 -4q5 3 19 -10q0 -2 1 -8q0 -6 1 -9q-12 7 -16 4q-3 0 -2 -2q0 -1 3 -2q2 -1 7 -4q2 -2 9 -4
q-1 -5 3 -15q0 -3 -3 -8v-1t-3 0q-9 6 -18 8q-3 1 -4 0t2 -3q12 -6 20 -9zM146 75q2 5 4 9q0 2 -4 4q-5 2 -14 16q-2 3 -1 3l4 -2q10 -4 17 -8q2 -1 2 -3q2 -3 4 -3q1 1 3 1l10 2q2 2 1 3q-3 2 -8 1q-4 -1 -9 3q-7 5 -15 16l-2 3q0 1 2 0q11 -6 20 -10q6 -3 10 -2l6 2
q2 0 2 4q0 2 -5 3h-1q-4 0 -5 1q-10 7 -19 10q-4 0 0 -2q5 -2 13 -9q2 -1 4 -3q1 -1 1 -2t-1 -1q-16 5 -29 17q-2 5 -3 4q-2 -1 -3 -7q-1 -1 -1 -2t2 -1q2 -1 4 -4q1 -1 3 -4q5 -7 9 -10q-1 1 -3 1q-6 3 -13 6l-4 4q-4 3 -5 2q-5 -1 -3 -4q1 -1 2 -3t3 -4q0 -2 5 -3
q3 -6 10 -15q-1 1 2 -3t4 -8q-1 -4 1 -2zM62 36q3 5 5 11q3 5 0 8q-5 3 -5 15q-7 38 -11 96v11q0 9 6 18q3 6 9 11q1 3 -1 5q-1 1 -3 -1q-2 -3 -4 -5q-5 -4 -7 -8q-6 -8 -9 -10q-5 -3 2 -7q4 0 5 -10q1 -27 4 -64q4 -42 6 -67q0 -3 3 -3zM168 154q5 1 10 4q2 1 1 2l-1 1
q0 3 -6 1q-8 -3 -22 1q-1 1 -2 1q-6 2 -10 0q1 9 3 22q0 2 1 6t2 5q-1 5 10 12q0 2 -2 5q-6 -3 -11 -7q-5 -3 -8 -7q-3 -3 4 -9q1 0 2 -6q-3 -21 -4 -36v-8q0 -5 -2 -7q-4 -3 1 -2q0 1 2 2q5 3 9 6q-1 3 -3 3q-2 2 -3 7q-2 6 -1 12q3 0 12 -3q5 -2 8 -3q1 -1 4 -1l2 -2
l-1 -2q0 -4 1 -6q1 -8 -2 -14l-1 -2q1 0 4 1q11 8 7 9q-5 5 -4 10v5zM94 87q7 9 1 11q-7 5 -14 16q-3 4 2 2q12 -3 15 -4q3 -4 6 -9q3 -4 8 -3q3 2 3 3t-3 2q-8 0 -26 28q-4 4 2 2q12 -5 19 -13q-1 0 -2 -2q-2 -2 -2 -3q-2 -2 0 -1q14 7 22 15q1 2 -1 3q-4 3 -6 0
q-6 -5 -9 -10q-5 6 -19 15q-5 4 -5 7q-5 4 -6 -1q-2 -7 2 -11l1 -1l9 -12q2 -3 4 -5q-18 6 -17 11q-1 2 -2 1q-2 1 -3 0q-3 -6 3 -10q6 -12 12 -20v-1q4 -6 5 -10q-1 -2 1 0zM121 162q4 1 1 2q-2 2 -7 4q-2 1 -3 1q-3 32 -25 37q-4 0 -1 -2q19 -7 23 -33q-11 5 -12 6
q-2 2 -5 3q-4 2 -5 3t-2 1q-1 1 -2 0q-4 -2 -3 -8q-2 -2 0 -3q5 -1 7 -23q0 -4 1 -1q3 12 1 19q0 7 3 5q1 0 7 -2q7 -3 11 -5v-5q1 -14 -3 -23q-2 -3 1 -2q6 6 6 11q-1 4 -1 11v7q3 -1 8 -3zM145 34q6 13 5 15q-1 15 4 20h2q4 -1 7 -3q5 -2 11 -2l2 2q0 2 -1 2q-6 5 -14 5
q-15 2 -23 0q-2 0 -2 -1q0 -2 2 -2q4 2 10 0q-3 -7 -6 -13q-2 -2 1 -22q1 -5 2 -1zM170 38h1q3 -3 6 -3q1 0 4 1h4l2 2q0 1 -1 1q-12 9 -27 8q-2 0 -3 -1q0 -1 2 -2q10 -2 12 -6z" />
</svg>
