<?xml version="1.0" standalone="no"?>
<!DOCTYPE svg PUBLIC "-//W3C//DTD SVG 1.1//EN" "http://www.w3.org/Graphics/SVG/1.1/DTD/svg11.dtd" >
<svg xmlns="http://www.w3.org/2000/svg" xmlns:xlink="http://www.w3.org/1999/xlink" version="1.1" viewBox="-10 0 266 256">
   <path fill="currentColor"
d="M179 12q2 -2 20 16q3 8 -3 10q-7 -1 -10 13q-7 29 -2 80q4 47 18 84q1 3 -1 5q-3 2 -6 -1q-23 -21 -35 -61q-2 -6 2 -1q6 10 12 18q5 8 8 11q2 3 3 2t1 -5q-16 -90 -4 -161q0 -3 -1 -4t-3 -1q-1 1 -5 2q-8 2 -20 6q-10 5 -19 1q-1 3 -2 5q-2 7 -4 12t2 1q3 -3 15 0
q6 6 5 11q-5 2 -4 6q0 5 -2 15v9q5 -1 10 -5q6 -4 17 -3q4 4 -1 8q-9 1 -17 6l-4 2q-1 0 1 -3h-6q-1 5 -2 16v13q8 -1 17 -6q5 -2 14 -1q3 5 0 7q-5 3 -22 6q-6 1 -9 1q-2 51 -14 66q-19 22 -36 23q-3 -1 -4 -2q0 -1 3 -2q45 -16 46 -85q-3 0 -6 -4q-2 -2 2 -2q2 2 5 0v-32
v-34q0 -4 -3 -3q-5 2 -6 3q-8 5 -11 -1q-4 -6 15 -32q3 -4 2 1q4 1 16 -4q23 -5 28 -6zM82 32q3 -2 20 16q3 7 -3 8q-4 0 -5 5q-3 19 -4 34q13 -14 29 -34q2 -2 4 -2q1 1 -1 4q-3 4 -7 10q-18 26 -25 35q-2 43 4 59q1 4 -3 6q-4 0 -5 -4q-9 -20 -16 -30q-1 -1 0 -2q1 0 3 1
l9 9q3 3 4 -1q-1 -11 -2 -31q-14 14 -33 31q-4 3 -7 6q-9 7 -11 -1q-1 -4 3 -4t11 -7q3 -4 9 -10q7 -6 28 -31q-1 -9 1 -14l-1 1q-6 0 -11 4q-5 3 -6 3q-1 -1 1 -4h-10q-1 8 1 20q0 4 1 6q1 3 -2 7q-4 3 -7 -3q-7 -16 -1 -18q1 0 2 -7q0 -2 1 -4v-34q0 -4 2 0q3 11 3 30
q5 0 8 -3t15 -6q1 -1 4 -2q0 -5 1 -35q-1 -6 -6 -4q-12 7 -19 7q-10 3 -12 3t-2 -1t2 -2q7 -3 13 -6q9 -5 20 -5z" />
</svg>
